<?xml version="1.0" encoding="UTF-8"?>
<!DOCTYPE svg PUBLIC "-//W3C//DTD SVG 1.1//EN" "http://www.w3.org/Graphics/SVG/1.1/DTD/svg11.dtd">
<svg xmlns="http://www.w3.org/2000/svg" version="1.1" width="500px" height="500px" style="shape-rendering:geometricPrecision; text-rendering:geometricPrecision; image-rendering:optimizeQuality; fill-rule:evenodd; clip-rule:evenodd" xmlns:xlink="http://www.w3.org/1999/xlink">
<g><path style="opacity:1" fill="#243642" d="M 341.5,107.5 C 341.5,112.5 341.5,117.5 341.5,122.5C 341.666,127.179 341.499,131.845 341,136.5C 338.762,138.309 337.595,140.642 337.5,143.5C 334.049,143.538 330.716,144.205 327.5,145.5C 320.649,145.174 316.149,141.84 314,135.5C 313.974,131.821 313.14,128.488 311.5,125.5C 313.726,119.66 314.059,113.66 312.5,107.5C 312.334,99.4931 312.5,91.4931 313,83.5C 319.074,74.9868 326.908,73.1534 336.5,78C 338.359,79.5578 339.859,81.3911 341,83.5C 341.5,91.4931 341.666,99.4931 341.5,107.5 Z"/></g>
<g><path style="opacity:1" fill="#183b61" d="M 177.5,106.5 C 175.773,101.827 175.44,96.9935 176.5,92C 176.477,89.0746 175.977,86.2413 175,83.5C 169.925,77.1992 163.425,75.1992 155.5,77.5C 164.752,73.1063 171.919,75.4396 177,84.5C 177.5,91.8258 177.666,99.1591 177.5,106.5 Z"/></g>
<g><path style="opacity:1" fill="#243641" d="M 177.5,106.5 C 177.5,106.833 177.5,107.167 177.5,107.5C 175.079,114.725 175.079,122.058 177.5,129.5C 177.315,130.584 176.982,131.584 176.5,132.5C 173.189,144.294 165.856,147.794 154.5,143C 150.879,139.651 148.879,135.485 148.5,130.5C 148.5,128.167 148.5,125.833 148.5,123.5C 148.5,118.167 148.5,112.833 148.5,107.5C 147.374,100.914 147.208,94.2474 148,87.5C 148.828,82.8175 151.328,79.4842 155.5,77.5C 163.425,75.1992 169.925,77.1992 175,83.5C 175.977,86.2413 176.477,89.0746 176.5,92C 175.44,96.9935 175.773,101.827 177.5,106.5 Z"/></g>
<g><path style="opacity:0.772" fill="#ad5754" d="M 341.5,107.5 C 354.837,107.333 368.171,107.5 381.5,108C 383.758,108.876 385.758,110.043 387.5,111.5C 386.041,111.567 384.708,111.234 383.5,110.5C 381.897,110.688 380.563,110.188 379.5,109C 367.171,108.5 354.838,108.333 342.5,108.5C 342.5,113.167 342.5,117.833 342.5,122.5C 342.167,122.5 341.833,122.5 341.5,122.5C 341.5,117.5 341.5,112.5 341.5,107.5 Z"/></g>
<g><path style="opacity:1" fill="#e9462b" d="M 146.5,124.5 C 143.634,129.306 142.968,134.306 144.5,139.5C 143.622,144.087 145.122,147.42 149,149.5C 149.333,150.833 149.667,152.167 150,153.5C 150.561,152.978 151.228,152.645 152,152.5C 157.993,154.527 164.159,155.027 170.5,154C 172.833,152.333 175.167,150.667 177.5,149C 178.448,148.517 179.448,148.351 180.5,148.5C 180.704,145.482 181.037,142.482 181.5,139.5C 182.162,133.437 180.996,127.77 178,122.5C 177.501,117.845 177.334,113.179 177.5,108.5C 222.19,108.187 266.857,108.521 311.5,109.5C 311.666,113.846 311.499,118.179 311,122.5C 305.477,130.206 305.144,138.206 310,146.5C 311.741,147.758 313.574,148.758 315.5,149.5C 321.536,153.726 328.203,154.726 335.5,152.5C 336.873,152.657 338.207,152.49 339.5,152C 340.834,149.913 342.667,148.413 345,147.5C 345.535,149.271 346.369,149.604 347.5,148.5C 347.052,141.547 346.885,134.547 347,127.5C 346.623,126.058 345.79,125.058 344.5,124.5C 343.5,124.167 342.833,123.5 342.5,122.5C 342.5,117.833 342.5,113.167 342.5,108.5C 354.838,108.333 367.171,108.5 379.5,109C 380.563,110.188 381.897,110.688 383.5,110.5C 383.881,111.931 384.881,112.764 386.5,113C 386.043,113.414 385.709,113.914 385.5,114.5C 390.464,116.297 393.964,119.631 396,124.5C 396.818,141.907 396.652,159.24 395.5,176.5C 295.5,176.5 195.5,176.5 95.5,176.5C 95.3334,159.83 95.5001,143.163 96,126.5C 96.813,124.564 97.313,122.564 97.5,120.5C 99.6298,118.873 101.63,117.04 103.5,115C 105.42,113.878 107.42,113.044 109.5,112.5C 109.5,111.5 109.5,110.5 109.5,109.5C 110.167,109.5 110.833,109.5 111.5,109.5C 123.469,108.584 135.469,108.251 147.5,108.5C 147.733,113.895 147.4,119.228 146.5,124.5 Z"/></g>
<g><path style="opacity:1" fill="#a65561" d="M 387.5,111.5 C 391.167,113.167 393.833,115.833 395.5,119.5C 393.704,118.207 392.037,116.707 390.5,115C 389.552,114.517 388.552,114.351 387.5,114.5C 387.5,113.5 387.5,112.5 387.5,111.5 Z"/></g>
<g><path style="opacity:0.855" fill="#975965" d="M 109.5,109.5 C 109.5,110.5 109.5,111.5 109.5,112.5C 107.42,113.044 105.42,113.878 103.5,115C 101.63,117.04 99.6298,118.873 97.5,120.5C 100.223,115.444 104.223,111.777 109.5,109.5 Z"/></g>
<g><path style="opacity:1" fill="#a14f4f" d="M 148.5,107.5 C 148.5,112.833 148.5,118.167 148.5,123.5C 147.833,123.833 147.167,124.167 146.5,124.5C 147.4,119.228 147.733,113.895 147.5,108.5C 135.469,108.251 123.469,108.584 111.5,109.5C 111.611,108.883 111.944,108.383 112.5,108C 124.495,107.5 136.495,107.333 148.5,107.5 Z"/></g>
<g><path style="opacity:1" fill="#b84e44" d="M 177.5,108.5 C 177.5,108.167 177.5,107.833 177.5,107.5C 222.5,107.5 267.5,107.5 312.5,107.5C 314.059,113.66 313.726,119.66 311.5,125.5C 310.778,125.918 310.278,126.584 310,127.5C 307.859,136.043 309.692,143.377 315.5,149.5C 313.574,148.758 311.741,147.758 310,146.5C 305.144,138.206 305.477,130.206 311,122.5C 311.499,118.179 311.666,113.846 311.5,109.5C 266.857,108.521 222.19,108.187 177.5,108.5 Z"/></g>
<g><path style="opacity:1" fill="#d64d3e" d="M 383.5,110.5 C 384.708,111.234 386.041,111.567 387.5,111.5C 387.5,112.5 387.5,113.5 387.5,114.5C 388.552,114.351 389.552,114.517 390.5,115C 392.037,116.707 393.704,118.207 395.5,119.5C 396.942,120.82 397.608,122.486 397.5,124.5C 397.5,125.5 397.5,126.5 397.5,127.5C 398.152,144.201 397.485,160.534 395.5,176.5C 396.652,159.24 396.818,141.907 396,124.5C 393.964,119.631 390.464,116.297 385.5,114.5C 385.709,113.914 386.043,113.414 386.5,113C 384.881,112.764 383.881,111.931 383.5,110.5 Z"/></g>
<g><path style="opacity:1" fill="#19202f" d="M 341.5,122.5 C 341.833,122.5 342.167,122.5 342.5,122.5C 342.833,123.5 343.5,124.167 344.5,124.5C 346.106,131.281 345.773,137.947 343.5,144.5C 341.146,147.521 338.479,150.188 335.5,152.5C 328.203,154.726 321.536,153.726 315.5,149.5C 309.692,143.377 307.859,136.043 310,127.5C 310.278,126.584 310.778,125.918 311.5,125.5C 313.14,128.488 313.974,131.821 314,135.5C 316.149,141.84 320.649,145.174 327.5,145.5C 330.716,144.205 334.049,143.538 337.5,143.5C 337.595,140.642 338.762,138.309 341,136.5C 341.499,131.845 341.666,127.179 341.5,122.5 Z"/></g>
<g><path style="opacity:1" fill="#cf4735" d="M 344.5,124.5 C 345.79,125.058 346.623,126.058 347,127.5C 346.885,134.547 347.052,141.547 347.5,148.5C 346.369,149.604 345.535,149.271 345,147.5C 342.667,148.413 340.834,149.913 339.5,152C 338.207,152.49 336.873,152.657 335.5,152.5C 338.479,150.188 341.146,147.521 343.5,144.5C 345.773,137.947 346.106,131.281 344.5,124.5 Z"/></g>
<g><path style="opacity:1" fill="#2c1f29" d="M 177.5,107.5 C 177.5,107.833 177.5,108.167 177.5,108.5C 177.334,113.179 177.501,117.845 178,122.5C 180.996,127.77 182.162,133.437 181.5,139.5C 180.52,143.214 178.52,146.381 175.5,149C 161.36,157.68 151.027,154.513 144.5,139.5C 142.968,134.306 143.634,129.306 146.5,124.5C 147.167,124.167 147.833,123.833 148.5,123.5C 148.5,125.833 148.5,128.167 148.5,130.5C 147.778,130.082 147.278,129.416 147,128.5C 146.501,133.155 146.334,137.821 146.5,142.5C 147.5,142.5 148.5,142.5 149.5,142.5C 149.994,148.17 152.994,150.67 158.5,150C 158.998,148.842 159.831,148.009 161,147.5C 163.224,149.181 165.724,150.181 168.5,150.5C 171.867,148.773 175.034,146.773 178,144.5C 178.627,141.284 179.461,138.117 180.5,135C 180.167,133.833 179.833,132.667 179.5,131.5C 178.583,132.127 177.583,132.461 176.5,132.5C 176.982,131.584 177.315,130.584 177.5,129.5C 175.079,122.058 175.079,114.725 177.5,107.5 Z"/></g>
<g><path style="opacity:1" fill="#195095" d="M 397.5,124.5 C 400.959,125.436 403.793,127.436 406,130.5C 408.527,134.221 410.527,138.221 412,142.5C 412.667,224.5 412.667,306.5 412,388.5C 407.316,402.849 397.483,411.016 382.5,413C 299.833,413.667 217.167,413.667 134.5,413C 123.985,411.584 115.985,406.418 110.5,397.5C 110.56,396.957 110.893,396.624 111.5,396.5C 113.896,398.067 116.563,398.9 119.5,399C 203.001,399.832 286.334,399.666 369.5,398.5C 371.626,397.952 373.626,397.285 375.5,396.5C 375.833,396.5 376.167,396.5 376.5,396.5C 390.945,390.365 398.279,379.365 398.5,363.5C 398.513,301.981 398.513,240.315 398.5,178.5C 296.833,178.5 195.167,178.5 93.5,178.5C 93.5,178.167 93.5,177.833 93.5,177.5C 195.5,177.5 297.5,177.5 399.5,177.5C 400.152,160.466 399.485,143.8 397.5,127.5C 397.5,126.5 397.5,125.5 397.5,124.5 Z"/></g>
<g><path style="opacity:1" fill="#b25052" d="M 97.5,120.5 C 97.313,122.564 96.813,124.564 96,126.5C 95.5001,143.163 95.3334,159.83 95.5,176.5C 195.5,176.5 295.5,176.5 395.5,176.5C 397.485,160.534 398.152,144.201 397.5,127.5C 399.485,143.8 400.152,160.466 399.5,177.5C 297.5,177.5 195.5,177.5 93.5,177.5C 93.3334,160.83 93.5001,144.163 94,127.5C 94.6701,124.826 95.8368,122.493 97.5,120.5 Z"/></g>
<g><path style="opacity:1" fill="#ce4b3a" d="M 144.5,139.5 C 151.027,154.513 161.36,157.68 175.5,149C 178.52,146.381 180.52,143.214 181.5,139.5C 181.037,142.482 180.704,145.482 180.5,148.5C 179.448,148.351 178.448,148.517 177.5,149C 175.167,150.667 172.833,152.333 170.5,154C 164.159,155.027 157.993,154.527 152,152.5C 151.228,152.645 150.561,152.978 150,153.5C 149.667,152.167 149.333,150.833 149,149.5C 145.122,147.42 143.622,144.087 144.5,139.5 Z"/></g>
<g><path style="opacity:1" fill="#102031" d="M 148.5,130.5 C 148.879,135.485 150.879,139.651 154.5,143C 165.856,147.794 173.189,144.294 176.5,132.5C 177.583,132.461 178.583,132.127 179.5,131.5C 179.833,132.667 180.167,133.833 180.5,135C 179.461,138.117 178.627,141.284 178,144.5C 175.034,146.773 171.867,148.773 168.5,150.5C 165.724,150.181 163.224,149.181 161,147.5C 159.831,148.009 158.998,148.842 158.5,150C 152.994,150.67 149.994,148.17 149.5,142.5C 148.5,142.5 147.5,142.5 146.5,142.5C 146.334,137.821 146.501,133.155 147,128.5C 147.278,129.416 147.778,130.082 148.5,130.5 Z"/></g>
<g><path style="opacity:0.999" fill="#236dbc" d="M 93.5,178.5 C 195.167,178.5 296.833,178.5 398.5,178.5C 398.513,240.315 398.513,301.981 398.5,363.5C 393.371,374.467 385.037,381.634 373.5,385C 288.5,385.667 203.5,385.667 118.5,385C 116.26,384.023 113.927,383.523 111.5,383.5C 102.923,378.416 97.0901,371.082 94,361.5C 93.51,362.793 93.3433,364.127 93.5,365.5C 92.2081,303.187 92.2081,240.853 93.5,178.5 Z"/></g>
<g><path style="opacity:1" fill="#faf8ef" d="M 303.5,218.5 C 318.366,220.368 328.532,228.368 334,242.5C 342.169,266.123 340.836,289.123 330,311.5C 326.882,316.457 322.715,320.124 317.5,322.5C 312.066,324.875 306.399,326.708 300.5,328C 287.838,328.5 275.171,328.667 262.5,328.5C 261.525,291.857 261.192,255.191 261.5,218.5C 275.5,218.5 289.5,218.5 303.5,218.5 Z"/></g>
<g><path style="opacity:1" fill="#faf9f1" d="M 352.5,217.5 C 359.5,217.5 366.5,217.5 373.5,217.5C 371.829,243.521 369.829,269.521 367.5,295.5C 362.5,295.5 357.5,295.5 352.5,295.5C 352.5,269.5 352.5,243.5 352.5,217.5 Z"/></g>
<g><path style="opacity:1" fill="#fbf9f0" d="M 216.5,276.5 C 218.164,275.051 218.998,273.051 219,270.5C 219.414,270.957 219.914,271.291 220.5,271.5C 223.002,253.798 225.669,236.131 228.5,218.5C 234.833,218.5 241.167,218.5 247.5,218.5C 246.892,222.472 246.392,226.472 246,230.5C 244.989,231.337 243.822,231.67 242.5,231.5C 242.298,235.934 242.298,240.434 242.5,245C 239.823,248.53 239.156,252.364 240.5,256.5C 239.833,259.167 239.167,261.833 238.5,264.5C 236.633,266.284 234.966,268.284 233.5,270.5C 234.035,272.271 234.869,272.604 236,271.5C 236.498,276.519 235.498,281.186 233,285.5C 230.928,298.529 228.595,311.529 226,324.5C 225.535,325.931 224.701,327.097 223.5,328C 216.508,328.5 209.508,328.666 202.5,328.5C 201.102,320.194 199.768,311.86 198.5,303.5C 197.817,303.137 197.15,302.804 196.5,302.5C 192.878,287.671 189.378,272.671 186,257.5C 183.273,269.533 180.439,281.533 177.5,293.5C 175.024,301.27 172.857,309.27 171,317.5C 170.172,321.466 169.672,325.466 169.5,329.5C 161.5,329.5 153.5,329.5 145.5,329.5C 145.946,326.99 145.28,324.99 143.5,323.5C 137.232,292.469 130.732,261.469 124,230.5C 123.265,226.187 122.765,221.853 122.5,217.5C 129.755,217.187 136.921,217.52 144,218.5C 148.666,241.831 153.333,265.164 158,288.5C 159.857,285.063 161.191,281.396 162,277.5C 166.03,257.442 170.197,237.442 174.5,217.5C 182.196,217.169 189.862,217.503 197.5,218.5C 202.666,242.157 207.832,265.824 213,289.5C 214.594,285.25 215.761,280.917 216.5,276.5 Z"/></g>
<g><path style="opacity:1" fill="#99bbd9" d="M 295.5,217.5 C 283.833,217.5 272.167,217.5 260.5,217.5C 260.5,255.167 260.5,292.833 260.5,330.5C 259.501,292.67 259.168,254.67 259.5,216.5C 271.678,216.172 283.678,216.505 295.5,217.5 Z"/></g>
<g><path style="opacity:1" fill="#ebf8fd" d="M 295.5,217.5 C 298.385,217.194 301.052,217.527 303.5,218.5C 289.5,218.5 275.5,218.5 261.5,218.5C 261.192,255.191 261.525,291.857 262.5,328.5C 275.171,328.667 287.838,328.5 300.5,328C 306.399,326.708 312.066,324.875 317.5,322.5C 312.174,326.321 306.174,328.821 299.5,330C 286.504,330.5 273.504,330.667 260.5,330.5C 260.5,292.833 260.5,255.167 260.5,217.5C 272.167,217.5 283.833,217.5 295.5,217.5 Z"/></g>
<g><path style="opacity:1" fill="#edf6f9" d="M 196.5,302.5 C 197.15,302.804 197.817,303.137 198.5,303.5C 199.768,311.86 201.102,320.194 202.5,328.5C 209.508,328.666 216.508,328.5 223.5,328C 224.701,327.097 225.535,325.931 226,324.5C 228.595,311.529 230.928,298.529 233,285.5C 235.498,281.186 236.498,276.519 236,271.5C 234.869,272.604 234.035,272.271 233.5,270.5C 234.966,268.284 236.633,266.284 238.5,264.5C 239.167,261.833 239.833,259.167 240.5,256.5C 239.156,252.364 239.823,248.53 242.5,245C 242.298,240.434 242.298,235.934 242.5,231.5C 243.822,231.67 244.989,231.337 246,230.5C 246.392,226.472 246.892,222.472 247.5,218.5C 241.167,218.5 234.833,218.5 228.5,218.5C 225.669,236.131 223.002,253.798 220.5,271.5C 219.914,271.291 219.414,270.957 219,270.5C 218.998,273.051 218.164,275.051 216.5,276.5C 220.293,256.869 223.959,237.202 227.5,217.5C 234.833,217.5 242.167,217.5 249.5,217.5C 242.324,254.531 234.49,291.531 226,328.5C 218.106,330.449 209.939,331.116 201.5,330.5C 199.186,321.28 197.519,311.947 196.5,302.5 Z"/></g>
<g><path style="opacity:1" fill="#236cba" d="M 282.5,239.5 C 306.53,237.031 318.197,247.864 317.5,272C 317.946,281.848 315.779,291.015 311,299.5C 307.731,302.883 303.897,305.383 299.5,307C 293.843,307.499 288.176,307.666 282.5,307.5C 282.5,284.833 282.5,262.167 282.5,239.5 Z"/></g>
<g><path style="opacity:1" fill="#f9f8f1" d="M 354.5,306.5 C 366.649,305.815 372.149,311.482 371,323.5C 366.524,331.455 360.024,333.622 351.5,330C 346.741,325.509 345.241,320.009 347,313.5C 348.742,310.254 351.242,307.921 354.5,306.5 Z"/></g>
<g><path style="opacity:1" fill="#d4ecfc" d="M 177.5,293.5 C 175.443,305.907 173.109,318.241 170.5,330.5C 161.833,330.5 153.167,330.5 144.5,330.5C 144.552,328.097 144.219,325.764 143.5,323.5C 145.28,324.99 145.946,326.99 145.5,329.5C 153.5,329.5 161.5,329.5 169.5,329.5C 169.672,325.466 170.172,321.466 171,317.5C 172.857,309.27 175.024,301.27 177.5,293.5 Z"/></g>
<g><path style="opacity:1" fill="#f2f7f7" d="M 398.5,363.5 C 398.279,379.365 390.945,390.365 376.5,396.5C 376.53,395.503 376.03,394.836 375,394.5C 373.189,393.922 371.355,393.422 369.5,393C 371.632,392.082 372.299,390.749 371.5,389C 374.46,389.32 377.46,389.32 380.5,389C 379.377,387.956 378.044,387.29 376.5,387C 289.167,386.667 201.833,386.333 114.5,386C 113.429,385.148 112.429,384.315 111.5,383.5C 113.927,383.523 116.26,384.023 118.5,385C 203.5,385.667 288.5,385.667 373.5,385C 385.037,381.634 393.371,374.467 398.5,363.5 Z"/></g>
<g><path style="opacity:1" fill="#fcf9ef" d="M 111.5,383.5 C 112.429,384.315 113.429,385.148 114.5,386C 201.833,386.333 289.167,386.667 376.5,387C 378.044,387.29 379.377,387.956 380.5,389C 377.46,389.32 374.46,389.32 371.5,389C 372.299,390.749 371.632,392.082 369.5,393C 371.355,393.422 373.189,393.922 375,394.5C 376.03,394.836 376.53,395.503 376.5,396.5C 376.167,396.5 375.833,396.5 375.5,396.5C 292.833,396.667 210.166,396.5 127.5,396C 122.489,395.415 117.489,394.749 112.5,394C 110.937,392.053 108.937,390.886 106.5,390.5C 105.833,390.5 105.167,390.5 104.5,390.5C 96.7975,384.097 93.1309,375.764 93.5,365.5C 93.3433,364.127 93.51,362.793 94,361.5C 97.0901,371.082 102.923,378.416 111.5,383.5 Z"/></g>
<g><path style="opacity:1" fill="#f2fafa" d="M 106.5,390.5 C 108.937,390.886 110.937,392.053 112.5,394C 117.489,394.749 122.489,395.415 127.5,396C 210.166,396.5 292.833,396.667 375.5,396.5C 373.626,397.285 371.626,397.952 369.5,398.5C 286.833,398.667 204.166,398.5 121.5,398C 115.363,397.598 110.363,395.098 106.5,390.5 Z"/></g>
<g><path style="opacity:1" fill="#31537c" d="M 104.5,390.5 C 105.167,390.5 105.833,390.5 106.5,390.5C 110.363,395.098 115.363,397.598 121.5,398C 204.166,398.5 286.833,398.667 369.5,398.5C 286.334,399.666 203.001,399.832 119.5,399C 116.563,398.9 113.896,398.067 111.5,396.5C 110.893,396.624 110.56,396.957 110.5,397.5C 108.529,395.192 106.529,392.858 104.5,390.5 Z"/></g>
</svg>
